# xmcd
# 
# Track frame offsets:
#     150
#     19745
#     33831
#     46266
#     61009
#     67810
#     79191
#     96280
#     104659
#     109809
#     127397
#     141547
#     150627
#     161525
#     166308
#     169249
#     172780
#     178146
#     181654
#     184116
#     187343
#     199753
#     215956
#     224696
#     230676
#     241323
#     267159
#     281627
#     289340
#     297432
#     308415
#     316411
#     328024
# 
# Disc length: 4446
# 
# Revision: 2
# Processed by: cddbd v1.5.2PL0 Copyright (c) Steve Scherf et al.
# Submitted via: BonkEnc v1.0.8
# 
DISCID=fa115c21
DTITLE=F.J.Haydn - Consortium Claasicum - Divertimenti für Bläser - Consortium Classicum - CD 2
DYEAR=0
DGENRE=Wind
TTITLE0=Parthia in Eflat Hob.deest I Allegro spirituoso
TTITLE1=Parthia in Eflat Hob.deest II Menuetto
TTITLE2=Parthia in Eflat Hob.deest III Rondo moderato
TTITLE3=Parthia in Eflat Hob.deest IV Presto assai
TTITLE4=Divertimento in C Hob.II:7 I Allegro
TTITLE5=Divertimento in C Hob.II:7 II Menuet
TTITLE6=Divertimento in C Hob.II:7 III Adagio
TTITLE7=Divertimento in C Hob.II:7 IV Menuet
TTITLE8=Divertimento in C Hob.II:7 V Presto
TTITLE9=Parthia in E flat Hob.II:Es16 I Allegro assai
TTITLE10=Parthia in E flat Hob.II:Es16 II Romanze: Andante
TTITLE11=Parthia in E flat Hob.II:Es16 III Menuett: Allegretto
TTITLE12=Parthia in E flat Hob.II:Es16 IV Rondo: Allegretto
TTITLE13=12 Notturnos Hob.II:D5 No.06 Grazioso
TTITLE14=12 Notturnos Hob.II:D5 No.07 Kanon
TTITLE15=12 Notturnos Hob.II:D5 No.08 Allegretto
TTITLE16=12 Notturnos Hob.II:D5 No.09 Menuet
TTITLE17=12 Notturnos Hob.II:D5 No.10 Grazioso
TTITLE18=12 Notturnos Hob.II:D5 No.11 Allegretto
TTITLE19=12 Notturnos Hob.II:D5 No.12 Allegretto
TTITLE20=Feldparthie in F Hob.II:44 I Marche con spirito
TTITLE21=Feldparthie in F Hob.II:44 II Adagio più Andante
TTITLE22=Feldparthie in F Hob.II:44 III Minuetto
TTITLE23=Feldparthie in F Hob.II:44 IV Scherzo
TTITLE24=Suite in E flat Hob.II:Es17 I Allegro assai
TTITLE25=Suite in E flat Hob.II:Es17 II Romance
TTITLE26=Suite in E flat Hob.II:Es17 III Menuetto: Allegro
TTITLE27=Suite in E flat Hob.II:Es17 IV Finale
TTITLE28=Parthia (Divertimento) in F Hob.II:23 I Allegro
TTITLE29=Parthia (Divertimento) in F Hob.II:23 II Menuet
TTITLE30=Parthia (Divertimento) in F Hob.II:23 III Adagio
TTITLE31=Parthia (Divertimento) in F Hob.II:23 IV Menuet
TTITLE32=Parthia (Divertimento) in F Hob.II:23 V Finale: Presto
EXTD=
EXTT0=
EXTT1=
EXTT2=
EXTT3=
EXTT4=
EXTT5=
EXTT6=
EXTT7=
EXTT8=
EXTT9=
EXTT10=
EXTT11=
EXTT12=
EXTT13=
EXTT14=
EXTT15=
EXTT16=
EXTT17=
EXTT18=
EXTT19=
EXTT20=
EXTT21=
EXTT22=
EXTT23=
EXTT24=
EXTT25=
EXTT26=
EXTT27=
EXTT28=
EXTT29=
EXTT30=
EXTT31=
EXTT32=
PLAYORDER=
